<?xml version="1.0" encoding="utf-8"?>
<!-- Generator: Adobe Illustrator 22.1.0, SVG Export Plug-In . SVG Version: 6.00 Build 0)  -->
<svg version="1.1" id="Layer_1" xmlns="http://www.w3.org/2000/svg" xmlns:xlink="http://www.w3.org/1999/xlink" x="0px" y="0px"
	 viewBox="0 0 750 750" style="enable-background:new 0 0 750 750;" xml:space="preserve">
<style type="text/css">
	.st0{opacity:0.2;fill:#445B6B;}
	.st1{opacity:0.2;fill:#4A5B67;}
	.st2{opacity:0.2;fill:#4E5962;}
	.st3{opacity:0.2;fill:#4C5860;}
	.st4{fill:#4D5961;}
	.st5{opacity:0.2;fill:#EE4143;}
	.st6{opacity:0.2;fill:#66318A;}
	.st7{opacity:0.2;fill:#5C3D6D;}
	.st8{opacity:0.2;fill:#583E6B;}
	.st9{opacity:0.2;fill:#623A7C;}
	.st10{opacity:0.2;fill:#F89622;}
	.st11{opacity:0.2;fill:#01A94D;}
	.st12{opacity:0.2;fill:#2DABE2;}
</style>
<g>
	<path class="st0" d="M373.2,358.8c0.4-11-1.1-21.9-2.6-32.7c-5.8-42.5-18.2-82.9-38.2-120.9c-39.4-74.8-97.2-130.6-173.6-167
		C116.4,17.9,71.6,6.9,24.7,3.6c-4.2-1.2-8.4-0.9-12.7-1c-7.9,0.1-15.8,0.1-23.8,0c-4.2,0.1-8.5-0.2-12.7,1c-15,1.1-30,2.8-44.8,5.7
		c-56,10.8-107.1,33.1-153,67c-12.5,9.3-24.7,19-35.5,30.3c-0.1,4.3-4,6-6.4,8.5c-1.5,1.6-2.6,4.6-5.9,3.7c-0.8,0.8-1.8,1.5-2.5,2.3
		c-17.2,18.5-32.6,38.4-45.8,59.9c-32.3,52.5-50.3,109.6-54.7,171.1c-1.1,2.3-0.7,4.8-0.6,7.2c-0.5,11.6-0.5,23.2,0,34.8
		c0,2.4-0.4,4.9,0.6,7.2c1.3,17.6,3.4,35.1,7.2,52.3c19.7,89.7,65.8,162.9,138.2,219.3c47.6,37.1,101.3,60.8,160.7,71.6
		c18.1,3.3,36.4,5.4,54.8,5.8c8.2-0.9,16.3-0.9,24.5,0l0,0c1.1,0,2.3,0.1,3.4,0.1c24.3-1.2,48.4-4.1,71.9-10.1
		c111.4-28.8,193.7-94.4,246.7-196.4c18.2-35,29.6-72.4,35.4-111.5c1.8-12.2,3.5-24.5,3.3-36.9C373.2,383.2,373.2,371,373.2,358.8
		C373.2,358.8,373.2,358.8,373.2,358.8z M-372.9,395.4c-1.2-5.8-0.7-11.7-0.7-17.5c0-6.6-0.6-13.2,0.7-19.8
		C-372.9,370.6-372.9,383-372.9,395.4z M12.4,3.2c-8.2,1-16.3,0.9-24.5,0C-3.9,2.9,4.2,2.9,12.4,3.2z M234,593
		c-42.7,47.1-95.8,77.8-157.5,93.4c-3.7,0.9-7.5,1.6-11.2,2.5c-5.1,1-10.1,2.5-15.3,2.5c0,0,0,0,0,0c-1.1-1-0.7-2.4-0.7-3.6
		c0-53.2,0-106.3,0-159.5c0-1.1-0.2-2.3,0.4-3.4c0,0,0,0,0,0c0,0,0,0,0,0c0.1-0.3,0.2-0.6,0.3-0.8c-1.7-8.4-4.4-16.4-9.7-23.5
		c-12.1-16.1-32.7-23.4-52.1-18.3c-19.8,5.2-34.1,21.5-36.5,41.7c-0.3,2.4-0.5,4.8-0.5,7.3c0,52-0.1,104.1,0.1,156.1
		c0,3.9-1.3,4.3-4.6,3.7c-66.8-11.9-124.4-41.5-172.2-89.5c-48.2-48.4-78.7-106.4-88.9-174.1c-15.3-101,11.4-190.2,79.8-266.1
		c46.6-51.7,104.7-84.9,173.2-97.5C42.1,45,134.6,70,213.6,140.1c55.7,49.5,90,111.8,101.2,185.6C330.1,427.3,303,516.9,234,593z"/>
	<path class="st2" d="M373.2,358.8C373.2,358.8,373.2,358.8,373.2,358.8c0.5,12.2,0.5,24.5,0,36.7c0.2-1.1,0.5-2.2,0.6-3.3
		c0.1-9,0.2-18,0.1-27C373.8,363,374.3,360.8,373.2,358.8z"/>
	<path class="st2" d="M373.2,358.8c0,12.2,0,24.4,0,36.7C373.7,383.2,373.7,371,373.2,358.8z"/>
	<path class="st3" d="M-12.1,750.3c8.2-0.3,16.3-0.3,24.5,0C4.2,749.4-3.9,749.4-12.1,750.3z"/>
	<path class="st3" d="M12.4,3.2c-8.2-0.3-16.3-0.3-24.5,0C-3.9,4.2,4.2,4.2,12.4,3.2z"/>
	<path class="st0" d="M0.1,317.7c-30.9,0.1-55.6,25-55.6,56c0,30.7,24.8,55.4,55.7,55.4c30.8,0,55.7-24.8,55.7-55.5
		C55.9,342.8,30.7,317.6,0.1,317.7z"/>
	<path class="st5" d="M1.2,251.2c29.2-0.5,54.9-25.5,54.6-56c-0.3-29.9-24.7-55.6-56-55.3c-32.3,0.3-56,27.2-55.1,55.8
		C-56.2,225.7-29.8,251.7,1.2,251.2z"/>
	<path class="st6" d="M206.4,452.8C206.4,452.8,206.4,452.8,206.4,452.8c-0.2-1.5-0.3-3-0.6-4.5c-5.4-30.4-36.2-50.7-66.3-44.1
		c-22.4,4.9-42.1,23.8-43.9,50.6c-1,15.5,3.5,29.5,14.3,41.1c3.4,0.2,3.6,0.4,3.8,3.9c0,0,0,0,0,0c8.9,8.4,19.5,12.9,31.5,14.2
		c3.8-0.9,7.6-1,11.5,0c0,0,0,0,0,0c26.3-2.8,47.3-23.5,49.7-49C205.5,460.9,205.5,456.9,206.4,452.8z"/>
	<path class="st7" d="M206.4,452.8c-0.4,4.1-0.3,8.1,0,12.2C206.9,460.9,206.9,456.9,206.4,452.8
		C206.4,452.8,206.4,452.8,206.4,452.8z"/>
	<path class="st7" d="M206.4,452.8c-1,4.1-0.9,8.1,0,12.2C206.1,460.9,206.1,456.9,206.4,452.8z"/>
	<path class="st8" d="M145.2,514c3.8,0.4,7.6,0.4,11.5,0c0,0,0,0,0,0C152.9,513.6,149.1,513.6,145.2,514z"/>
	<path class="st8" d="M145.2,514c3.8-0.3,7.6-0.3,11.5,0C152.9,513,149.1,513,145.2,514z"/>
	<path class="st9" d="M109.9,495.8c1,1.5,2.3,2.8,3.8,3.9c0,0,0,0,0,0C113,497.8,111.9,496.4,109.9,495.8z"/>
	<path class="st9" d="M109.9,495.8c2,0.6,3.1,2,3.8,3.9C113.5,496.2,113.3,496,109.9,495.8z"/>
	<circle class="st12" cx="153.5" cy="284.4" r="54.8"/>
</g>
</svg>
